<?xml version="1.0" standalone="no"?>
<!DOCTYPE svg PUBLIC "-//W3C//DTD SVG 20010904//EN"
 "http://www.w3.org/TR/2001/REC-SVG-20010904/DTD/svg10.dtd">
<svg version="1.0" xmlns="http://www.w3.org/2000/svg"
 width="1024.000000pt" height="1024.000000pt" viewBox="0 0 1024.000000 1024.000000"
 preserveAspectRatio="xMidYMid meet">

<g transform="translate(0.000000,1024.000000) scale(0.100000,-0.100000)"
fill="#000000" stroke="none">
<path d="M6680 8434 c-389 -43 -749 -183 -1108 -432 l-93 -64 5 -61 c3 -34 11
-119 17 -188 l11 -126 106 -52 c232 -116 458 -285 685 -514 82 -82 150 -148
151 -146 2 2 19 36 39 74 89 180 150 401 181 660 41 349 49 402 67 472 37 139
125 326 161 341 4 2 8 10 8 18 0 10 -12 14 -39 14 -21 0 -65 2 -97 4 -32 2
-75 2 -94 0z"/>
<path d="M5210 8354 c-286 -61 -614 -265 -895 -555 -397 -410 -604 -848 -605
-1281 0 -209 36 -362 130 -553 67 -136 130 -225 241 -338 l76 -79 63 32 c359
181 651 489 815 858 84 191 135 405 155 662 12 142 10 198 -11 531 -12 188 -1
369 31 494 15 59 51 147 98 238 5 10 -22 8 -98 -9z"/>
<path d="M3945 7888 c-522 -181 -998 -498 -1354 -902 -360 -408 -586 -839
-720 -1376 -23 -93 -61 -361 -72 -505 -19 -277 16 -646 91 -953 281 -1143
1254 -2053 2456 -2296 240 -49 345 -59 594 -59 364 0 665 48 980 158 412 143
738 338 1059 633 148 136 175 194 132 289 -23 49 -55 73 -110 80 -35 5 -61 -5
-223 -85 -456 -226 -854 -312 -1383 -299 -258 6 -422 29 -665 93 -439 115
-855 364 -1198 719 -400 411 -628 874 -718 1455 -23 143 -26 565 -6 705 50
347 133 628 264 889 91 183 247 417 356 534 27 29 48 67 67 120 34 98 138 312
205 422 62 102 167 244 238 321 66 73 67 78 7 57z"/>
<path d="M5496 7202 c-3 -20 -6 -53 -6 -73 0 -20 -9 -88 -20 -150 -11 -63 -20
-121 -20 -129 0 -9 14 -24 32 -34 69 -41 273 -224 463 -416 268 -270 408 -383
606 -489 195 -104 409 -178 579 -201 47 -6 97 -13 113 -15 25 -4 30 0 62 70
36 79 96 172 146 229 l29 34 -98 11 c-391 48 -716 189 -964 418 -46 42 -153
148 -238 235 -251 255 -380 363 -596 496 l-82 51 -6 -37z"/>
<path d="M7915 6001 c-98 -25 -210 -132 -287 -271 -94 -172 -145 -455 -119
-668 30 -247 141 -450 283 -521 73 -37 124 -40 200 -11 100 37 175 124 230
267 50 129 59 191 65 440 8 350 -19 526 -101 646 -64 95 -175 143 -271 118z"/>
<path d="M5290 5934 c-89 -38 -148 -116 -157 -206 -10 -104 37 -195 129 -247
71 -41 123 -48 192 -26 232 73 251 376 31 476 -49 23 -146 24 -195 3z"/>
<path d="M7342 4517 c-20 -23 -204 -105 -287 -128 -108 -29 -301 -37 -410 -16
-44 8 -122 31 -172 51 -104 41 -140 44 -199 17 -71 -32 -107 -116 -84 -199 42
-160 403 -284 728 -252 59 6 116 13 127 17 18 5 18 4 6 -11 -8 -10 -58 -50
-112 -91 -243 -183 -480 -289 -794 -357 -98 -21 -136 -23 -355 -23 -219 0
-257 2 -355 24 -159 33 -293 80 -441 152 -147 73 -193 80 -257 40 -111 -68
-114 -198 -7 -294 84 -75 351 -194 537 -238 161 -38 248 -50 423 -56 509 -17
949 108 1380 392 117 77 321 243 364 297 11 12 43 49 72 80 93 102 248 312
233 317 -8 2 -53 24 -101 49 -91 46 -189 127 -243 201 -33 45 -38 47 -53 28z"/>
</g>
</svg>
